# xmcd
#
# Track frame offsets: 
#        150
#        13150
#        30835
#        48927
#        65322
#        84162
#        107055
#        125112
#        143472
#        163390
#
# Disc length: 2408 seconds
#
# Revision: 10
# Processed by: cddbd v1.5.2PL0 Copyright (c) Steve Scherf et al.
# Submitted via: ExactAudioCopy v1.1
#
DISCID=7909660a
DTITLE=Spice Girls - Spice (Japan)
DYEAR=1996
DGENRE=Pop
TTITLE0=Wannabe
TTITLE1=Say You'll Be There
TTITLE2=2 Become 1
TTITLE3=Love Thing
TTITLE4=Last Time Lover
TTITLE5=Mama
TTITLE6=Who Do You Think You Are
TTITLE7=Something Kinda Funny
TTITLE8=Naked
TTITLE9=If U Can't Dance
EXTD=YEAR: 1996
EXTT0=
EXTT1=
EXTT2=
EXTT3=
EXTT4=
EXTT5=
EXTT6=
EXTT7=
EXTT8=
EXTT9=
PLAYORDER=
